<?xml version="1.0" encoding="UTF-8"?> <svg xmlns="http://www.w3.org/2000/svg" width="484.929" height="272.073" viewBox="0 0 484.929 272.073"><g id="Groupe_1194" data-name="Groupe 1194" transform="translate(-247.553 248.638)"><g id="Groupe_1068" data-name="Groupe 1068" transform="translate(441.528 -24.91)"><g id="Groupe_1067" data-name="Groupe 1067"><g id="Groupe_1066" data-name="Groupe 1066"><path id="Tracé_2227" data-name="Tracé 2227" d="M363.291-100.233c16.212,4.1,31.833,9.936,47.467,15.812,14.5,5.449,30.363,12.969,45.828,14.964,4.347.56,6.21-.391,9.562-3.023,7.013-5.5,13.348-11.693,20.614-16.944,11.794-8.52,24.873-15.059,36.373-23.981,2.157-1.671-.868-4.656-3-3-11.206,8.689-24.02,15.015-35.513,23.316q-7.581,5.477-14.7,11.563c-3.432,2.938-5.691,5.775-10.14,6.888-4.537,1.136-7.993-.307-12.422-1.589-28.077-8.131-54.557-20.918-82.94-28.1-2.651-.671-3.78,3.422-1.129,4.093Z" transform="translate(-361.78 116.89)" fill="#fff"></path></g></g></g><g id="Groupe_1071" data-name="Groupe 1071" transform="translate(440.144 -74.884)"><g id="Groupe_1070" data-name="Groupe 1070"><g id="Groupe_1069" data-name="Groupe 1069"><path id="Tracé_2228" data-name="Tracé 2228" d="M364.7-83.5a313.65,313.65,0,0,1,49.865-32.38c7.817-4.064,15.942-7.5,23.74-11.6,8.009-4.2,14.937-11.639,23.426-14.618,2.561-.9,1.459-5-1.129-4.094-7.827,2.746-13.6,8.9-20.7,13.013-8.844,5.115-18.417,8.917-27.476,13.628A319.228,319.228,0,0,0,361.7-86.5c-2.141,1.693.88,4.68,3,3Z" transform="translate(-360.965 146.319)" fill="#fff"></path></g></g></g><g id="Groupe_1074" data-name="Groupe 1074" transform="translate(537.869 -75.173)"><g id="Groupe_1073" data-name="Groupe 1073"><g id="Groupe_1072" data-name="Groupe 1072"><path id="Tracé_2229" data-name="Tracé 2229" d="M420.048-142.361c20.916,3.469,40.982,10.454,61.565,15.316,2.658.628,3.79-3.464,1.129-4.094-20.583-4.862-40.649-11.846-61.567-15.316-2.671-.443-3.821,3.648-1.128,4.094Z" transform="translate(-418.513 146.489)" fill="#fff"></path></g></g></g><g id="Groupe_1077" data-name="Groupe 1077" transform="translate(501.628 -15.321)"><g id="Groupe_1076" data-name="Groupe 1076"><g id="Groupe_1075" data-name="Groupe 1075"><path id="Tracé_2230" data-name="Tracé 2230" d="M432.363-95.518c-11.807-3.969-19.682-13.818-32.526-15.7-2.671-.392-3.826,3.7-1.128,4.093,12.733,1.866,20.755,11.744,32.525,15.7,2.595.873,3.709-3.227,1.129-4.094Z" transform="translate(-397.171 111.244)" fill="#fff"></path></g></g></g><g id="Groupe_1080" data-name="Groupe 1080" transform="translate(492.054 -33.108)"><g id="Groupe_1079" data-name="Groupe 1079"><g id="Groupe_1078" data-name="Groupe 1078"><path id="Tracé_2231" data-name="Tracé 2231" d="M392.952-117.464q26.4,10.523,52.228,22.4c2.466,1.133,4.626-2.525,2.143-3.666q-26.326-12.1-53.242-22.828c-2.539-1.012-3.641,3.092-1.129,4.094Z" transform="translate(-391.533 121.718)" fill="#fff"></path></g></g></g><g id="Groupe_1083" data-name="Groupe 1083" transform="translate(530.782 -31.393)"><g id="Groupe_1082" data-name="Groupe 1082"><g id="Groupe_1081" data-name="Groupe 1081"><path id="Tracé_2232" data-name="Tracé 2232" d="M415.813-116.5q10.059,3.255,20.23,6.151c2.632.749,3.756-3.347,1.128-4.094q-10.169-2.894-20.23-6.151c-2.605-.842-3.721,3.255-1.128,4.094Z" transform="translate(-414.339 120.708)" fill="#fff"></path></g></g></g><g id="Groupe_1120" data-name="Groupe 1120" transform="translate(247.553 -248.638)"><g id="Groupe_1085" data-name="Groupe 1085"><g id="Groupe_1084" data-name="Groupe 1084"><path id="Tracé_2233" data-name="Tracé 2233" d="M454.162-64.107a1.551,1.551,0,0,1-.2-.012C445.8-65.066,254-87.336,251.637-87.765c-2.928-.533-3.739-1.78-3.953-2.291a1.723,1.723,0,0,1-.131-.661l.567-156.23a1.7,1.7,0,0,1,.559-1.253,1.707,1.707,0,0,1,1.3-.43l203.495,19.811a1.7,1.7,0,0,1,1.535,1.681l.849,161.325a1.7,1.7,0,0,1-.565,1.274A1.7,1.7,0,0,1,454.162-64.107ZM250.953-91.481a5.434,5.434,0,0,0,1.291.374c2.956.484,179.773,21.021,200.211,23.4l-.83-157.876L251.51-245.07Z" transform="translate(-247.553 248.638)" fill="#fff"></path></g></g><g id="Groupe_1087" data-name="Groupe 1087" transform="translate(3.114 136.982)"><g id="Groupe_1086" data-name="Groupe 1086"><path id="Tracé_2234" data-name="Tracé 2234" d="M448.071-104.573a1.637,1.637,0,0,1-.183-.01L252.6-125.81a1.7,1.7,0,0,1-1.377-1.019l-1.7-3.964a1.685,1.685,0,0,1-.129-.837l1.131-11.322a1.7,1.7,0,0,1,1.859-1.52,1.7,1.7,0,0,1,1.52,1.858l-1.089,10.887,1.136,2.647L447.872-108l70.963-24.864c5.149-8.273,10.415-18.165,10.756-21.118-4.87-2.625-42.722-7.37-76.87-10.6a1.7,1.7,0,0,1-1.53-1.851,1.677,1.677,0,0,1,1.851-1.53c.2.017,19.7,1.868,39.032,4.215,40.362,4.9,40.642,7,40.89,8.854.6,4.5-8.7,19.765-11.566,24.336a1.7,1.7,0,0,1-.878.7l-71.888,25.19A1.7,1.7,0,0,1,448.071-104.573Z" transform="translate(-249.387 167.972)" fill="#fff"></path></g></g><g id="Groupe_1089" data-name="Groupe 1089" transform="translate(204.91 151.136)"><g id="Groupe_1088" data-name="Groupe 1088"><path id="Tracé_2235" data-name="Tracé 2235" d="M369.919-126.241a1.7,1.7,0,0,1-1.584-1.087,1.7,1.7,0,0,1,.971-2.2l77.55-30a1.7,1.7,0,0,1,2.2.971,1.7,1.7,0,0,1-.97,2.2l-77.55,30A1.7,1.7,0,0,1,369.919-126.241Z" transform="translate(-368.22 159.638)" fill="#fff"></path></g></g><g id="Groupe_1091" data-name="Groupe 1091" transform="translate(71.465 63.68)"><g id="Groupe_1090" data-name="Groupe 1090"><path id="Tracé_2236" data-name="Tracé 2236" d="M315.109-159.344a25.716,25.716,0,0,1-25.472-25.9,25.716,25.716,0,0,1,25.472-25.9,25.716,25.716,0,0,1,25.472,25.9A25.716,25.716,0,0,1,315.109-159.344Zm0-48.4a22.316,22.316,0,0,0-22.076,22.5,22.316,22.316,0,0,0,22.076,22.5,22.317,22.317,0,0,0,22.076-22.5A22.317,22.317,0,0,0,315.109-207.742Z" transform="translate(-289.637 211.138)" fill="#fff"></path></g></g><g id="Groupe_1093" data-name="Groupe 1093" transform="translate(14.396 166.033)"><g id="Groupe_1092" data-name="Groupe 1092"><path id="Tracé_2237" data-name="Tracé 2237" d="M261.111-140.41a5.11,5.11,0,0,1-3.731-1.255,5.558,5.558,0,0,1-1.323-3.765,4.883,4.883,0,0,1,.45-2.773,3.03,3.03,0,0,1,1.105-1.126,2.54,2.54,0,0,1,.268-.684,1.693,1.693,0,0,1,1.842-.81,35.292,35.292,0,0,0,9.893.79l.411-.027a11.076,11.076,0,0,1,4.1.265,4.753,4.753,0,0,1,3.551,4.464,4.693,4.693,0,0,1-2.989,4.031,10.39,10.39,0,0,1-3.938.645l-9.1.236C261.488-140.413,261.308-140.41,261.111-140.41Zm-1.683-5.777c0,.2.012.423.019.552a3.3,3.3,0,0,0,.336,1.571c.29.29,1.331.263,1.778.251l9.1-.236a7.7,7.7,0,0,0,2.688-.372c.513-.221.922-.662.932-1.009.012-.4-.533-.925-1.165-1.122a8.241,8.241,0,0,0-2.865-.119l-.43.027a38.95,38.95,0,0,1-8.732-.453c-.017.027-.034.056-.053.083a1.9,1.9,0,0,1-.107.161A1.671,1.671,0,0,1,259.428-146.187Zm-.876-.34,0,0Zm2.039-2.829,0,0Z" transform="translate(-256.03 150.865)" fill="#fff"></path></g></g><g id="Groupe_1095" data-name="Groupe 1095" transform="translate(39.53 167.705)"><g id="Groupe_1094" data-name="Groupe 1094"><path id="Tracé_2238" data-name="Tracé 2238" d="M280.021-140.088a16.4,16.4,0,0,1-6.338-1.284A4.5,4.5,0,0,1,271-143.9a4.614,4.614,0,0,1,.2-2.929,3.391,3.391,0,0,0,.205-.863,1.694,1.694,0,0,1,.3-1.561,1.708,1.708,0,0,1,1.462-.628,45.072,45.072,0,0,1,6.866,1.187c.966.221,1.96.447,3.028.657a1.7,1.7,0,0,1,1.326,1.286,1.7,1.7,0,0,1-.632,1.737c-1.155.869-1.95,2.152-1.81,2.919a1.7,1.7,0,0,1-.358,1.379,1.7,1.7,0,0,1-1.284.62C280.2-140.09,280.111-140.088,280.021-140.088Zm-5.792-4.858a2.3,2.3,0,0,0,.778.447,12.95,12.95,0,0,0,3.688.946,6.577,6.577,0,0,1,.793-1.775c-.075-.017-.148-.034-.221-.049-1.564-.358-3.064-.7-4.682-.927-.049.18-.1.348-.153.5a3.437,3.437,0,0,0-.2.856Z" transform="translate(-270.831 149.881)" fill="#fff"></path></g></g><g id="Groupe_1097" data-name="Groupe 1097" transform="translate(210.208 180.633)"><g id="Groupe_1096" data-name="Groupe 1096"><path id="Tracé_2239" data-name="Tracé 2239" d="M375.418-130.787a1.673,1.673,0,0,1-.907-.263l-.513-.082c-1.272-.205-2.588-.416-2.658-1.873a1.6,1.6,0,0,1,.08-.567v-2.956c0-2.889,3.291-3.561,5.061-3.923l8.676-1.771a2.143,2.143,0,0,1,2.233.931c1.077,1.6.379,5.1-.382,6.242a6.605,6.605,0,0,1-4.092,2.381l-7.068,1.827h0A1.677,1.677,0,0,1,375.418-130.787Zm-.6-3.653c.263.044.526.092.776.156l6.472-1.674a3.907,3.907,0,0,0,2.118-.975,5.244,5.244,0,0,0,.352-1.7l-7.256,1.482a8.719,8.719,0,0,0-2.461.744Zm11.019-4.456Zm-.34-1.662h0Z" transform="translate(-371.339 142.267)" fill="#fff"></path></g></g><g id="Groupe_1099" data-name="Groupe 1099" transform="translate(226.787 175.639)"><g id="Groupe_1098" data-name="Groupe 1098"><path id="Tracé_2240" data-name="Tracé 2240" d="M386.877-134.52a3.849,3.849,0,0,1-1.262-.211,6.892,6.892,0,0,1-4.5-5.444,1.7,1.7,0,0,1,.672-1.6,16.52,16.52,0,0,1,10.933-3.395h0a5.8,5.8,0,0,1,3.789,2.126,2.327,2.327,0,0,1,.324,2.055,4.871,4.871,0,0,1-2.778,2.709A14.841,14.841,0,0,0,392.121-137C390.52-135.822,388.745-134.52,386.877-134.52Zm-2.1-5.184a3.472,3.472,0,0,0,1.939,1.761c.662.228,2.371-1.039,3.4-1.79a16.494,16.494,0,0,1,2.474-1.61c.178-.085.324-.163.447-.233a2.264,2.264,0,0,0-.571-.207A12.806,12.806,0,0,0,384.775-139.7Z" transform="translate(-381.102 145.208)" fill="#fff"></path></g></g><g id="Groupe_1101" data-name="Groupe 1101" transform="translate(242.985 169.834)"><g id="Groupe_1100" data-name="Groupe 1100"><path id="Tracé_2241" data-name="Tracé 2241" d="M394.031-138.859a1.7,1.7,0,0,1-1.679-1.466,1.69,1.69,0,0,1,.07-.764,5.633,5.633,0,0,1-.825-1.832c-.054-.039-.11-.076-.168-.114a1.7,1.7,0,0,1-.762-1.72,1.7,1.7,0,0,1,1.294-1.367l10.3-2.376a3,3,0,0,1,2.272.216,2.757,2.757,0,0,1,1.223,1.645,4.777,4.777,0,0,1-.409,3.7,7.235,7.235,0,0,1-4.176,3.347,16.8,16.8,0,0,1-4.483.555,23.687,23.687,0,0,0-2.425.158A1.553,1.553,0,0,1,394.031-138.859Zm1.516-4.605a6.805,6.805,0,0,1,.479,1.056c.187-.007.374-.014.559-.019a14.083,14.083,0,0,0,3.6-.409,3.833,3.833,0,0,0,2.167-1.695,1.771,1.771,0,0,0,.2-.547Z" transform="translate(-390.641 148.627)" fill="#fff"></path></g></g><g id="Groupe_1103" data-name="Groupe 1103" transform="translate(176.505 184.099)"><g id="Groupe_1102" data-name="Groupe 1102"><path id="Tracé_2242" data-name="Tracé 2242" d="M358.081-130.8a6.351,6.351,0,0,1-3.9-1.328,1.662,1.662,0,0,1-.353-.09,3.7,3.7,0,0,1-2.321-3.191,4.681,4.681,0,0,1,4.128-4.765,6.941,6.941,0,0,1,5.353,1.775c1.761,1.471,2.425,3.471,1.691,5.1a4.068,4.068,0,0,1-2.129,1.985A6.063,6.063,0,0,1,358.081-130.8Zm-3.114-4.648a1.69,1.69,0,0,1,1.123.482,2.9,2.9,0,0,0,3.072.549.981.981,0,0,0,.419-.284,1.962,1.962,0,0,0-.773-1.092,3.678,3.678,0,0,0-2.7-1.019c-.64.09-1.253.669-1.218,1.145A.47.47,0,0,0,354.966-135.449Z" transform="translate(-351.492 140.227)" fill="#fff"></path></g></g><g id="Groupe_1105" data-name="Groupe 1105" transform="translate(120.004 175.475)"><g id="Groupe_1104" data-name="Groupe 1104"><path id="Tracé_2243" data-name="Tracé 2243" d="M319.918-132.285a1.7,1.7,0,0,1-1.7-1.7v-9.623a1.7,1.7,0,0,1,1.7-1.7,1.7,1.7,0,0,1,1.7,1.7v9.623A1.7,1.7,0,0,1,319.918-132.285Z" transform="translate(-318.22 145.305)" fill="#fff"></path></g></g><g id="Groupe_1107" data-name="Groupe 1107" transform="translate(125.289 175.474)"><g id="Groupe_1106" data-name="Groupe 1106"><path id="Tracé_2244" data-name="Tracé 2244" d="M323.031-132.586a1.653,1.653,0,0,1-.314-.029,1.7,1.7,0,0,1-1.355-1.983,56.368,56.368,0,0,0,.948-9.046,1.676,1.676,0,0,1,1.736-1.659,1.7,1.7,0,0,1,1.659,1.737,59.713,59.713,0,0,1-1.005,9.6A1.7,1.7,0,0,1,323.031-132.586Z" transform="translate(-321.333 145.305)" fill="#fff"></path></g></g><g id="Groupe_1109" data-name="Groupe 1109" transform="translate(131.841 176.891)"><g id="Groupe_1108" data-name="Groupe 1108"><path id="Tracé_2245" data-name="Tracé 2245" d="M327.472-132.538a2.119,2.119,0,0,1-1.464-.586,3.116,3.116,0,0,1-.8-2.454l.632-7.338a1.677,1.677,0,0,1,1.837-1.545,1.7,1.7,0,0,1,1.545,1.837l-.606,7.064a1.694,1.694,0,0,1,.61,1.078,1.7,1.7,0,0,1-1.442,1.921A2.361,2.361,0,0,1,327.472-132.538Zm-.168-3.384h0Z" transform="translate(-325.191 144.471)" fill="#fff"></path></g></g><g id="Groupe_1111" data-name="Groupe 1111" transform="translate(137.613 178.03)"><g id="Groupe_1110" data-name="Groupe 1110"><path id="Tracé_2246" data-name="Tracé 2246" d="M330.288-133.071a1.3,1.3,0,0,1-.139-.007,1.7,1.7,0,0,1-1.554-1.829c.2-2.483.489-4.987.856-7.446a1.7,1.7,0,0,1,1.929-1.43,1.7,1.7,0,0,1,1.43,1.931c-.355,2.382-.633,4.813-.83,7.221A1.7,1.7,0,0,1,330.288-133.071Z" transform="translate(-328.59 143.8)" fill="#fff"></path></g></g><g id="Groupe_1113" data-name="Groupe 1113" transform="translate(143.29 178.835)"><g id="Groupe_1112" data-name="Groupe 1112"><path id="Tracé_2247" data-name="Tracé 2247" d="M333.655-132.811a1.7,1.7,0,0,1-1.695-1.627,31.52,31.52,0,0,1,.593-7.526,1.7,1.7,0,0,1,2-1.33,1.7,1.7,0,0,1,1.328,2,28.094,28.094,0,0,0-.53,6.715,1.7,1.7,0,0,1-1.627,1.766Z" transform="translate(-331.933 143.326)" fill="#fff"></path></g></g><g id="Groupe_1115" data-name="Groupe 1115" transform="translate(149.91 179.997)"><g id="Groupe_1114" data-name="Groupe 1114"><path id="Tracé_2248" data-name="Tracé 2248" d="M338.178-132.723a1.7,1.7,0,0,1-.474-.068c-1.065-.309-2.1-1.418-1.827-3.6l.6-4.763a1.694,1.694,0,0,1,1.9-1.472,1.7,1.7,0,0,1,1.472,1.9l-.6,4.765c-.01.08-.015.149-.017.209a1.7,1.7,0,0,1,.579,1.807A1.7,1.7,0,0,1,338.178-132.723Zm1.061-2.809h0Z" transform="translate(-335.831 142.642)" fill="#fff"></path></g></g><g id="Groupe_1117" data-name="Groupe 1117" transform="translate(156.513 181.985)"><g id="Groupe_1116" data-name="Groupe 1116"><path id="Tracé_2249" data-name="Tracé 2249" d="M341.42-132.414a1.925,1.925,0,0,1-.258-.019,1.7,1.7,0,0,1-1.423-1.936,26.516,26.516,0,0,0,.267-5.319,1.7,1.7,0,0,1,1.61-1.781,1.7,1.7,0,0,1,1.781,1.61,29.927,29.927,0,0,1-.3,6A1.7,1.7,0,0,1,341.42-132.414Z" transform="translate(-339.719 141.471)" fill="#fff"></path></g></g><g id="Groupe_1119" data-name="Groupe 1119" transform="translate(205.477 147.454)"><g id="Groupe_1118" data-name="Groupe 1118"><path id="Tracé_2250" data-name="Tracé 2250" d="M371.1-134.916a1.7,1.7,0,0,1-1.6-1.134,1.7,1.7,0,0,1,1.038-2.167l47.018-16.566-47.433-3.631a1.7,1.7,0,0,1-1.564-1.822,1.684,1.684,0,0,1,1.822-1.564l55.474,4.245a1.7,1.7,0,0,1,1.554,1.471,1.7,1.7,0,0,1-1.119,1.826l-54.623,19.245A1.729,1.729,0,0,1,371.1-134.916Z" transform="translate(-368.553 161.806)" fill="#fff"></path></g></g></g><g id="Groupe_1135" data-name="Groupe 1135" transform="translate(401.476 -59.693)"><g id="Groupe_1122" data-name="Groupe 1122" transform="translate(0 17.443)"><g id="Groupe_1121" data-name="Groupe 1121"><path id="Tracé_2251" data-name="Tracé 2251" d="M366.777-66.283h-.049a63.881,63.881,0,0,1-12.361-1.557,17.319,17.319,0,0,1-9.4-6.113,1.707,1.707,0,0,1-.36-.907q-.285-3.258-.616-6.512c-.644-6.363-1.421-12.791-2.315-19.1-.192-1.357-.362-2.753-.531-4.169-.564-4.656-1.146-9.471-2.641-13.512a4.241,4.241,0,0,1,.464-4.052c2.817-4.045,13.544-4.894,22.047-4.894,8.594,0,23.137,1.513,23.137,7.176a3.073,3.073,0,0,1-.037.487,1.687,1.687,0,0,1,.387,1.1,232.528,232.528,0,0,1-3.344,36.578,53.327,53.327,0,0,0-1.043,10.96,1.7,1.7,0,0,1-.856,1.547A24.96,24.96,0,0,1,366.777-66.283Zm-18.833-9.4a13.82,13.82,0,0,0,7.088,4.51,61.118,61.118,0,0,0,11.7,1.491h.044a22.333,22.333,0,0,0,9.921-2.058,60.918,60.918,0,0,1,1.114-10.6,228.987,228.987,0,0,0,3.254-33.686c-4.743,2.5-13.913,3.274-20.052,3.274-5.949,0-13.3-.666-18.089-2.4a94.519,94.519,0,0,1,1.591,10.1c.168,1.392.335,2.768.523,4.1.9,6.354,1.683,12.826,2.333,19.233Q347.675-78.7,347.944-75.681Zm-6.332-43.928c2.024,1.707,9.342,3.463,19.4,3.463,12.008,0,19.242-2.5,19.753-3.846-.513-1.207-7.745-3.712-19.751-3.712-10.089,0-17.829,1.382-19.261,3.439A.778.778,0,0,0,341.612-119.609Z" transform="translate(-338.195 127.101)" fill="#fff"></path></g></g><g id="Groupe_1124" data-name="Groupe 1124" transform="translate(0.849 6.464)"><g id="Groupe_1123" data-name="Groupe 1123"><path id="Tracé_2252" data-name="Tracé 2252" d="M350.253-110.177a1.7,1.7,0,0,1-1.627-1.216L343.2-129.66a5.181,5.181,0,0,0-.982,1.122l4.228,14.4a2.45,2.45,0,0,1,.307,2.573,1.7,1.7,0,0,1-1.668.968,1.7,1.7,0,0,1-1.5-1.214l-4.83-16.445a1.7,1.7,0,0,1,.088-1.192c.776-1.679,2.99-4.257,5.577-4.113a1.7,1.7,0,0,1,1.518,1.211l5.935,19.991a1.7,1.7,0,0,1-1.143,2.111A1.724,1.724,0,0,1,350.253-110.177Zm-6.285-1.671,0,0Z" transform="translate(-338.695 133.566)" fill="#fff"></path></g></g><g id="Groupe_1126" data-name="Groupe 1126" transform="translate(10.511 1.53)"><g id="Groupe_1125" data-name="Groupe 1125"><path id="Tracé_2253" data-name="Tracé 2253" d="M353.374-109.156a1.988,1.988,0,0,1-.2-.012,1.7,1.7,0,0,1-1.489-1.506l-2.4-22.394a5.213,5.213,0,0,0-1.438.353c.4,6.439,1,12.928,1.781,19.318a1.7,1.7,0,0,1,.484,1.022,1.838,1.838,0,0,1-1.552,1.96,2.053,2.053,0,0,1-2.208-1.792c-.885-7.085-1.545-14.3-1.965-21.439a1.7,1.7,0,0,1,.839-1.566c1.73-1.009,4.3-1.763,6.31-.852a1.7,1.7,0,0,1,.988,1.367l2.294,21.409a1.7,1.7,0,0,1,.545,1.9l-.392,1.1A1.7,1.7,0,0,1,353.374-109.156Z" transform="translate(-344.384 136.472)" fill="#fff"></path></g></g><g id="Groupe_1128" data-name="Groupe 1128" transform="translate(21.189)"><g id="Groupe_1127" data-name="Groupe 1127"><path id="Tracé_2254" data-name="Tracé 2254" d="M357.612-107.771a1.7,1.7,0,0,1-1.7-1.693c-.008-3.165.272-6.309.543-9.347.138-1.547.275-3.094.377-4.65a33.475,33.475,0,0,0-.278-7.842c-2.262,5.188-2.335,11.388-2.406,17.421-.017,1.46-.034,2.9-.082,4.312a1.71,1.71,0,0,1-1.754,1.64,1.7,1.7,0,0,1-1.64-1.754c.048-1.384.063-2.8.082-4.237.088-7.569.188-16.146,4.964-22.748a1.687,1.687,0,0,1,1.583-.691,1.7,1.7,0,0,1,1.369,1.051c1.854,4.614,1.775,9.669,1.554,13.069-.1,1.583-.245,3.159-.384,4.729-.263,2.963-.538,6.027-.53,9.038a1.7,1.7,0,0,1-1.693,1.7Z" transform="translate(-350.673 137.373)" fill="#fff"></path></g></g><g id="Groupe_1131" data-name="Groupe 1131" transform="translate(29.71 5.533)"><g id="Groupe_1129" data-name="Groupe 1129" transform="translate(1.698 1.697)"><path id="Tracé_2255" data-name="Tracé 2255" d="M356.69-114.323l6.071-18.792" transform="translate(-356.69 133.115)" fill="#fff"></path></g><g id="Groupe_1130" data-name="Groupe 1130"><path id="Tracé_2256" data-name="Tracé 2256" d="M357.388-111.927a1.7,1.7,0,0,1-.521-.083,1.7,1.7,0,0,1-1.094-2.138l6.071-18.79a1.7,1.7,0,0,1,2.138-1.094,1.7,1.7,0,0,1,1.094,2.138L359-113.1A1.7,1.7,0,0,1,357.388-111.927Z" transform="translate(-355.69 134.114)" fill="#fff"></path></g></g><g id="Groupe_1134" data-name="Groupe 1134" transform="translate(33.374 7.459)"><g id="Groupe_1132" data-name="Groupe 1132" transform="translate(1.7 1.697)"><path id="Tracé_2257" data-name="Tracé 2257" d="M359.046-116.645c.07.083-.126.165-.178.071s.01-.207.071-.3q5.293-7.71,11.012-15.112" transform="translate(-358.848 131.981)" fill="#fff"></path></g><g id="Groupe_1133" data-name="Groupe 1133"><path id="Tracé_2258" data-name="Tracé 2258" d="M359.662-114.137a1.876,1.876,0,0,1-1.578-.912,1.915,1.915,0,0,1,.151-2.08c3.529-5.142,7.253-10.252,11.07-15.192a1.7,1.7,0,0,1,2.383-.306,1.7,1.7,0,0,1,.306,2.381c-3.631,4.7-7.176,9.552-10.544,14.436a1.694,1.694,0,0,1-.136.593,1.91,1.91,0,0,1-1.576,1.078Z" transform="translate(-357.848 132.98)" fill="#fff"></path></g></g></g><g id="Groupe_1139" data-name="Groupe 1139" transform="translate(608.367 -61.142)"><g id="Groupe_1138" data-name="Groupe 1138"><g id="Groupe_1137" data-name="Groupe 1137"><g id="Groupe_1136" data-name="Groupe 1136"><path id="Tracé_2259" data-name="Tracé 2259" d="M487.4-126.7c-13.269,0-27.373-1.951-27.373-5.57s14.1-5.959,27.373-5.959,27.369,2.342,27.369,5.959S500.667-126.7,487.4-126.7Z" transform="translate(-460.027 138.226)" fill="#fff"></path></g></g></g></g><g id="Groupe_1143" data-name="Groupe 1143" transform="translate(630.901 4.27)"><g id="Groupe_1142" data-name="Groupe 1142"><g id="Groupe_1141" data-name="Groupe 1141"><g id="Groupe_1140" data-name="Groupe 1140"><path id="Tracé_2260" data-name="Tracé 2260" d="M473.3-99.707" transform="translate(-473.297 99.707)" fill="none" stroke="#fff" stroke-linecap="round" stroke-linejoin="round" stroke-width="0.5"></path></g></g></g></g><g id="Groupe_1147" data-name="Groupe 1147" transform="translate(630.901 13.221)"><g id="Groupe_1146" data-name="Groupe 1146"><g id="Groupe_1145" data-name="Groupe 1145"><g id="Groupe_1144" data-name="Groupe 1144"><path id="Tracé_2261" data-name="Tracé 2261" d="M473.3-94.436" transform="translate(-473.297 94.436)" fill="none" stroke="#fff" stroke-linecap="round" stroke-linejoin="round" stroke-width="0.5"></path></g></g></g></g><g id="Groupe_1151" data-name="Groupe 1151" transform="translate(666.941 -34.968)"><g id="Groupe_1150" data-name="Groupe 1150"><g id="Groupe_1149" data-name="Groupe 1149"><g id="Groupe_1148" data-name="Groupe 1148"><path id="Tracé_2262" data-name="Tracé 2262" d="M496-86.97a1.477,1.477,0,0,1-1.478-1.477v-32.888A1.477,1.477,0,0,1,496-122.813a1.477,1.477,0,0,1,1.476,1.477v32.888A1.477,1.477,0,0,1,496-86.97Z" transform="translate(-494.52 122.813)" fill="#fff"></path></g></g></g></g><g id="Groupe_1155" data-name="Groupe 1155" transform="translate(605.227 -58.515)"><g id="Groupe_1154" data-name="Groupe 1154"><g id="Groupe_1153" data-name="Groupe 1153"><g id="Groupe_1152" data-name="Groupe 1152"><path id="Tracé_2263" data-name="Tracé 2263" d="M488.215-126.079c-3.074,0-30.037-.25-30.037-8.9a1.7,1.7,0,0,1,1.7-1.7,1.7,1.7,0,0,1,1.7,1.7c0,2.245,10.377,5.505,26.641,5.505s26.641-3.26,26.641-5.505a1.7,1.7,0,0,1,1.7-1.7,1.7,1.7,0,0,1,1.7,1.7C518.252-126.329,491.29-126.079,488.215-126.079Z" transform="translate(-458.178 136.679)" fill="#fff"></path></g></g></g></g><g id="Groupe_1159" data-name="Groupe 1159" transform="translate(659.683 -43.506)"><g id="Groupe_1158" data-name="Groupe 1158"><g id="Groupe_1157" data-name="Groupe 1157"><g id="Groupe_1156" data-name="Groupe 1156"><path id="Tracé_2264" data-name="Tracé 2264" d="M516.357-121.271a1.483,1.483,0,0,1-1.184-.589,8.761,8.761,0,0,0-6.986-3.028H495.108a1.753,1.753,0,0,0-1.909,1.764,1.477,1.477,0,0,1-1.476,1.477,1.477,1.477,0,0,1-1.477-1.477,4.691,4.691,0,0,1,4.846-4.717h13.095a11.749,11.749,0,0,1,9.348,4.206,1.478,1.478,0,0,1-.294,2.068A1.474,1.474,0,0,1,516.357-121.271Z" transform="translate(-490.246 127.841)" fill="#fff"></path></g></g></g></g><g id="Groupe_1163" data-name="Groupe 1163" transform="translate(684.315 -39.889)"><g id="Groupe_1162" data-name="Groupe 1162"><g id="Groupe_1161" data-name="Groupe 1161"><g id="Groupe_1160" data-name="Groupe 1160"><path id="Tracé_2265" data-name="Tracé 2265" d="M506.227-79.305a1.479,1.479,0,0,1-.886-.3,1.48,1.48,0,0,1-.294-2.068,4.3,4.3,0,0,0,.929-2.619v-36.441a4.3,4.3,0,0,0-.929-2.619,1.48,1.48,0,0,1,.294-2.068,1.478,1.478,0,0,1,2.068.294,7.288,7.288,0,0,1,1.522,4.393v36.441a7.288,7.288,0,0,1-1.522,4.393A1.477,1.477,0,0,1,506.227-79.305Z" transform="translate(-504.751 125.711)" fill="#fff"></path></g></g></g></g><g id="Groupe_1167" data-name="Groupe 1167" transform="translate(665.464 -34.949)"><g id="Groupe_1166" data-name="Groupe 1166"><g id="Groupe_1165" data-name="Groupe 1165"><g id="Groupe_1164" data-name="Groupe 1164"><path id="Tracé_2266" data-name="Tracé 2266" d="M501.248-86.276h-6.12a1.477,1.477,0,0,1-1.477-1.477,1.477,1.477,0,0,1,1.477-1.477h6.12c1.494,0,2.653-.8,2.653-1.491v-27.634c0-.689-1.158-1.491-2.653-1.491h-6.12a1.477,1.477,0,0,1-1.477-1.477,1.477,1.477,0,0,1,1.477-1.477h6.12c3.092,0,5.607,2,5.607,4.446v27.634C506.855-88.272,504.34-86.276,501.248-86.276Z" transform="translate(-493.65 122.802)" fill="#fff"></path></g></g></g></g><g id="Groupe_1171" data-name="Groupe 1171" transform="translate(659.683 3.562)"><g id="Groupe_1170" data-name="Groupe 1170"><g id="Groupe_1169" data-name="Groupe 1169"><g id="Groupe_1168" data-name="Groupe 1168"><path id="Tracé_2267" data-name="Tracé 2267" d="M508.187-93.552H495.108a4.7,4.7,0,0,1-4.862-4.717,1.477,1.477,0,0,1,1.477-1.477A1.477,1.477,0,0,1,493.2-98.27a1.774,1.774,0,0,0,1.922,1.763h13.066a8.76,8.76,0,0,0,6.986-3.026,1.476,1.476,0,0,1,2.068-.294,1.478,1.478,0,0,1,.294,2.068A11.749,11.749,0,0,1,508.187-93.552Z" transform="translate(-490.246 100.124)" fill="#fff"></path></g></g></g></g><g id="Groupe_1174" data-name="Groupe 1174" transform="translate(620.183 -28.78)"><g id="Groupe_1173" data-name="Groupe 1173"><path id="Tracé_2269" data-name="Tracé 2269" d="M472.811-88.412a4.026,4.026,0,0,1-2.077-.508,5.079,5.079,0,0,1-1.494-1.343,7.368,7.368,0,0,1-1.039-1.949,13.027,13.027,0,0,1-.608-2.332,17.169,17.169,0,0,1-.329-2.508q-.076-1.291-.126-2.508-.051-1.164-.051-2.23c0-.71-.019-1.333-.051-1.875q-.051-1.923-.051-3.8v-3.8a16.678,16.678,0,0,1,.2-2.382,10.859,10.859,0,0,1,.71-2.585,5.99,5.99,0,0,1,1.42-2.077,3.189,3.189,0,0,1,2.279-.861,3.343,3.343,0,0,1,1.9.557,5.175,5.175,0,0,1,1.42,1.418,6.4,6.4,0,0,1,.861,1.875,7.307,7.307,0,0,1,.278,1.926,15.341,15.341,0,0,1-.153,2.18q-.1.3-.791.506a6.911,6.911,0,0,1-1.554.253q-.818.051-1.556.025c-.494-.017-.825-.025-1-.025h-2.653a.135.135,0,0,0-.153.153v4.458q0,1.623.051,3.32t.153,3.318q0,1.319.151,2.889c.07.54.138,1.082.206,1.622a8.142,8.142,0,0,0,.357,1.571,6.681,6.681,0,0,0,1.326,2.508,3.082,3.082,0,0,0,2.449.987,1.854,1.854,0,0,0,1.1-.3,1.8,1.8,0,0,0,.638-.785,4.129,4.129,0,0,0,.28-1.114,11.165,11.165,0,0,0,.076-1.292v-.2a.72.72,0,0,0,.1-.3.472.472,0,0,1,.611-.253c.238,0,.392.17.46.506,0,.2.007.4.025.584s.025.363.025.532a4.312,4.312,0,0,1-.888,2.685,2.965,2.965,0,0,1-2.508,1.167m2.079-25.117a10.867,10.867,0,0,0-.329-1.659,6.33,6.33,0,0,0-.608-1.457,2.825,2.825,0,0,0-1.014-1.031,3.064,3.064,0,0,0-1.6-.379,1.833,1.833,0,0,0-1.367.654,5.666,5.666,0,0,0-1.014,1.559,8.789,8.789,0,0,0-.608,1.936,9.381,9.381,0,0,0-.2,1.783v.253a.553.553,0,0,0,.051.251c0,.034.051.049.153.049.506,0,1.021.01,1.545.025a15.73,15.73,0,0,0,1.6-.025c.54,0,1.072-.015,1.6-.049a10.266,10.266,0,0,0,1.494-.2c.134-.066.219-.234.253-.5a1.945,1.945,0,0,0,.026-.552,2.871,2.871,0,0,1,.026-.654" transform="translate(-466.985 119.169)" fill="#fff"></path></g></g><g id="Groupe_1176" data-name="Groupe 1176" transform="translate(631.178 -28.629)"><g id="Groupe_1175" data-name="Groupe 1175"><path id="Tracé_2270" data-name="Tracé 2270" d="M478.02-88.729a3.494,3.494,0,0,1-1.014-.151,1.977,1.977,0,0,1-.91-.608,9.313,9.313,0,0,1-1.445-3.243,30.087,30.087,0,0,1-.785-4.23q-.255-2.206-.329-4.332t-.076-3.649c0-.742.025-1.673.076-2.787s.143-2.247.279-3.395a32.568,32.568,0,0,1,.557-3.32,11.475,11.475,0,0,1,.861-2.608,3.563,3.563,0,0,1,1.42-1.42,3.7,3.7,0,0,1,1.875-.608,2.776,2.776,0,0,1,2.128.812,5.18,5.18,0,0,1,1.139,2,11.045,11.045,0,0,1,.482,2.508c.066.88.1,1.656.1,2.332q0,3.7.1,7.4t.1,7.4q0,1.113-.127,2.483a9.322,9.322,0,0,1-.608,2.583,5.222,5.222,0,0,1-1.394,2.028,3.523,3.523,0,0,1-2.432.81m3.244-19.643v-3.857q0-.711-.076-1.7a9.8,9.8,0,0,0-.333-1.905,4.075,4.075,0,0,0-.817-1.573,1.849,1.849,0,0,0-1.481-.661,2.226,2.226,0,0,0-1.4.457,3.974,3.974,0,0,0-1,1.168,7.122,7.122,0,0,0-.74,2.359q-.28,1.6-.458,3.427t-.256,3.529q-.076,1.7-.076,2.715,0,1.319.1,3.325t.384,4.111a32.755,32.755,0,0,0,.764,3.96,8.352,8.352,0,0,0,1.2,2.817,1.366,1.366,0,0,0,1.073.355,2.139,2.139,0,0,0,1.606-.659,4.881,4.881,0,0,0,1.022-1.651,8.558,8.558,0,0,0,.511-2.08,17.411,17.411,0,0,0,.126-2.007q0-3.044-.075-6.064t-.076-6.068" transform="translate(-473.46 119.08)" fill="#dc0a31"></path></g></g><g id="Groupe_1178" data-name="Groupe 1178" transform="translate(643.086 -28.831)"><g id="Groupe_1177" data-name="Groupe 1177"><path id="Tracé_2271" data-name="Tracé 2271" d="M481.688-116.31a11.121,11.121,0,0,1,1.683-2.028,3.425,3.425,0,0,1,2.445-.861,3.226,3.226,0,0,1,2.194.71,4.378,4.378,0,0,1,1.223,1.773,8.236,8.236,0,0,1,.509,2.255q.1,1.19.1,2.1,0,4.865-.153,9.652t-.151,9.654a6.555,6.555,0,0,0,.4,2.432,1.093,1.093,0,0,0,.2.253c.1.1.185.187.253.253s.168.17.3.3a.56.56,0,0,1,.2.355.574.574,0,0,1-.177.457.646.646,0,0,1-.431.151,1.106,1.106,0,0,1-.914-.457,4.482,4.482,0,0,1-.611-1.09,5.851,5.851,0,0,1-.357-1.3,7.306,7.306,0,0,1-.1-1.066q0-5.227.178-10.379t.178-10.379a10.162,10.162,0,0,0-.127-1.574,5.537,5.537,0,0,0-.433-1.472,3.008,3.008,0,0,0-.842-1.09,2.08,2.08,0,0,0-1.35-.433,3.155,3.155,0,0,0-1.583.406,4.419,4.419,0,0,0-1.248,1.066,6.437,6.437,0,0,0-.893,1.472,7.479,7.479,0,0,0-.51,1.625,10.81,10.81,0,0,0-.127,1.572q-.025,1.016.025,2.182c.034.779.058,1.532.077,2.26s.025,1.328.025,1.8q.048,4.114.051,8.2v8.2c0,.474-.212.71-.633.71a.414.414,0,0,1-.438-.253,3.659,3.659,0,0,1-.146-.457v-.708q0-2.028-.025-4.028t-.024-4.028q0-5.018.177-9.983t.076-10.033v-.355a.42.42,0,0,1,.433-.353c.16,0,.287.143.384.43a3.088,3.088,0,0,1,.146.988,1.964,1.964,0,0,1,.026.532,5.305,5.305,0,0,0-.026.533" transform="translate(-480.472 119.199)" fill="#dc0a31"></path></g></g><g id="Groupe_1180" data-name="Groupe 1180" transform="translate(657.425 0.001)"><g id="Groupe_1179" data-name="Groupe 1179"><path id="Tracé_2272" data-name="Tracé 2272" d="M489.879-100.244a.95.95,0,0,1-.684-.482,1.469,1.469,0,0,1-.278-.785q0-.711.81-.71a1.023,1.023,0,0,1,.735.329,1.017,1.017,0,0,1,.329.734.872.872,0,0,1-.278.633.873.873,0,0,1-.633.28" transform="translate(-488.916 102.221)" fill="#fff"></path></g></g><g id="Groupe_1181" data-name="Groupe 1181" transform="translate(611.305 -38.212)"><path id="Tracé_2273" data-name="Tracé 2273" d="M469.388-81.75a2.686,2.686,0,0,1-.657-.075c-.2-.051-.406-.093-.608-.127a21.637,21.637,0,0,0-2.281-.076c-.744.019-1.5.025-2.281.025a.811.811,0,0,1-.735-.278,2.336,2.336,0,0,1-.279-.735,19.946,19.946,0,0,1-.1-2v-2q0-1.47-.051-2.989t-.051-3.041q0-7.091.329-14.086T463-121.222c0-.37.2-.557.608-.557a.379.379,0,0,1,.329.253,2.836,2.836,0,0,1,.2.557,2.609,2.609,0,0,1,.076.633v.482q0,1.014-.025,2.051c-.017.695-.025,1.377-.025,2.053q0,1.419-.1,2.812t-.2,2.812q-.255,4.307-.3,8.538t-.051,8.537q0,2.18.051,4.334t.051,4.332a3.351,3.351,0,0,0,.076.861.46.46,0,0,0,.3.329,1.281,1.281,0,0,0,.582.025,7.11,7.11,0,0,1,.963-.051h.988q.734,0,1.52.051a5.58,5.58,0,0,1,1.393.253c.406.136.591.321.559.557-.07.406-.272.608-.61.608" transform="translate(-462.346 121.779)" fill="#fff"></path></g><g id="Groupe_1183" data-name="Groupe 1183" transform="translate(620.183 -28.78)"><g id="Groupe_1182" data-name="Groupe 1182"><path id="Tracé_2274" data-name="Tracé 2274" d="M472.811-88.412a4.026,4.026,0,0,1-2.077-.508,5.079,5.079,0,0,1-1.494-1.343,7.368,7.368,0,0,1-1.039-1.949,13.027,13.027,0,0,1-.608-2.332,17.169,17.169,0,0,1-.329-2.508q-.076-1.291-.126-2.508-.051-1.164-.051-2.23c0-.71-.019-1.333-.051-1.875q-.051-1.923-.051-3.8v-3.8a16.678,16.678,0,0,1,.2-2.382,10.859,10.859,0,0,1,.71-2.585,5.99,5.99,0,0,1,1.42-2.077,3.189,3.189,0,0,1,2.279-.861,3.343,3.343,0,0,1,1.9.557,5.175,5.175,0,0,1,1.42,1.418,6.4,6.4,0,0,1,.861,1.875,7.307,7.307,0,0,1,.278,1.926,15.341,15.341,0,0,1-.153,2.18q-.1.3-.791.506a6.911,6.911,0,0,1-1.554.253q-.818.051-1.556.025c-.494-.017-.825-.025-1-.025h-2.653a.135.135,0,0,0-.153.153v4.458q0,1.623.051,3.32t.153,3.318q0,1.319.151,2.889c.07.54.138,1.082.206,1.622a8.142,8.142,0,0,0,.357,1.571,6.681,6.681,0,0,0,1.326,2.508,3.082,3.082,0,0,0,2.449.987,1.854,1.854,0,0,0,1.1-.3,1.8,1.8,0,0,0,.638-.785,4.129,4.129,0,0,0,.28-1.114,11.165,11.165,0,0,0,.076-1.292v-.2a.72.72,0,0,0,.1-.3.472.472,0,0,1,.611-.253c.238,0,.392.17.46.506,0,.2.007.4.025.584s.025.363.025.532a4.312,4.312,0,0,1-.888,2.685,2.965,2.965,0,0,1-2.508,1.167m2.079-25.117a10.867,10.867,0,0,0-.329-1.659,6.33,6.33,0,0,0-.608-1.457,2.825,2.825,0,0,0-1.014-1.031,3.064,3.064,0,0,0-1.6-.379,1.833,1.833,0,0,0-1.367.654,5.666,5.666,0,0,0-1.014,1.559,8.789,8.789,0,0,0-.608,1.936,9.381,9.381,0,0,0-.2,1.783v.253a.553.553,0,0,0,.051.251c0,.034.051.049.153.049.506,0,1.021.01,1.545.025a15.73,15.73,0,0,0,1.6-.025c.54,0,1.072-.015,1.6-.049a10.266,10.266,0,0,0,1.494-.2c.134-.066.219-.234.253-.5a1.945,1.945,0,0,0,.026-.552,2.871,2.871,0,0,1,.026-.654" transform="translate(-466.985 119.169)" fill="#fff"></path></g></g><g id="Groupe_1185" data-name="Groupe 1185" transform="translate(631.178 -28.629)"><g id="Groupe_1184" data-name="Groupe 1184"><path id="Tracé_2275" data-name="Tracé 2275" d="M478.02-88.729a3.494,3.494,0,0,1-1.014-.151,1.977,1.977,0,0,1-.91-.608,9.313,9.313,0,0,1-1.445-3.243,30.087,30.087,0,0,1-.785-4.23q-.255-2.206-.329-4.332t-.076-3.649c0-.742.025-1.673.076-2.787s.143-2.247.279-3.395a32.568,32.568,0,0,1,.557-3.32,11.475,11.475,0,0,1,.861-2.608,3.563,3.563,0,0,1,1.42-1.42,3.7,3.7,0,0,1,1.875-.608,2.776,2.776,0,0,1,2.128.812,5.18,5.18,0,0,1,1.139,2,11.045,11.045,0,0,1,.482,2.508c.066.88.1,1.656.1,2.332q0,3.7.1,7.4t.1,7.4q0,1.113-.127,2.483a9.322,9.322,0,0,1-.608,2.583,5.222,5.222,0,0,1-1.394,2.028,3.523,3.523,0,0,1-2.432.81m3.244-19.643v-3.857q0-.711-.076-1.7a9.8,9.8,0,0,0-.333-1.905,4.075,4.075,0,0,0-.817-1.573,1.849,1.849,0,0,0-1.481-.661,2.226,2.226,0,0,0-1.4.457,3.974,3.974,0,0,0-1,1.168,7.122,7.122,0,0,0-.74,2.359q-.28,1.6-.458,3.427t-.256,3.529q-.076,1.7-.076,2.715,0,1.319.1,3.325t.384,4.111a32.755,32.755,0,0,0,.764,3.96,8.352,8.352,0,0,0,1.2,2.817,1.366,1.366,0,0,0,1.073.355,2.139,2.139,0,0,0,1.606-.659,4.881,4.881,0,0,0,1.022-1.651,8.558,8.558,0,0,0,.511-2.08,17.411,17.411,0,0,0,.126-2.007q0-3.044-.075-6.064t-.076-6.068" transform="translate(-473.46 119.08)" fill="#dc0a31"></path></g></g><g id="Groupe_1187" data-name="Groupe 1187" transform="translate(643.086 -28.831)"><g id="Groupe_1186" data-name="Groupe 1186"><path id="Tracé_2276" data-name="Tracé 2276" d="M481.688-116.31a11.121,11.121,0,0,1,1.683-2.028,3.425,3.425,0,0,1,2.445-.861,3.226,3.226,0,0,1,2.194.71,4.378,4.378,0,0,1,1.223,1.773,8.236,8.236,0,0,1,.509,2.255q.1,1.19.1,2.1,0,4.865-.153,9.652t-.151,9.654a6.555,6.555,0,0,0,.4,2.432,1.093,1.093,0,0,0,.2.253c.1.1.185.187.253.253s.168.17.3.3a.56.56,0,0,1,.2.355.574.574,0,0,1-.177.457.646.646,0,0,1-.431.151,1.106,1.106,0,0,1-.914-.457,4.482,4.482,0,0,1-.611-1.09,5.851,5.851,0,0,1-.357-1.3,7.306,7.306,0,0,1-.1-1.066q0-5.227.178-10.379t.178-10.379a10.162,10.162,0,0,0-.127-1.574,5.537,5.537,0,0,0-.433-1.472,3.008,3.008,0,0,0-.842-1.09,2.08,2.08,0,0,0-1.35-.433,3.155,3.155,0,0,0-1.583.406,4.419,4.419,0,0,0-1.248,1.066,6.437,6.437,0,0,0-.893,1.472,7.479,7.479,0,0,0-.51,1.625,10.81,10.81,0,0,0-.127,1.572q-.025,1.016.025,2.182c.034.779.058,1.532.077,2.26s.025,1.328.025,1.8q.048,4.114.051,8.2v8.2c0,.474-.212.71-.633.71a.414.414,0,0,1-.438-.253,3.659,3.659,0,0,1-.146-.457v-.708q0-2.028-.025-4.028t-.024-4.028q0-5.018.177-9.983t.076-10.033v-.355a.42.42,0,0,1,.433-.353c.16,0,.287.143.384.43a3.088,3.088,0,0,1,.146.988,1.964,1.964,0,0,1,.026.532,5.305,5.305,0,0,0-.026.533" transform="translate(-480.472 119.199)" fill="#dc0a31"></path></g></g><g id="Groupe_1189" data-name="Groupe 1189" transform="translate(657.425 0.001)"><g id="Groupe_1188" data-name="Groupe 1188"><path id="Tracé_2277" data-name="Tracé 2277" d="M489.879-100.244a.95.95,0,0,1-.684-.482,1.469,1.469,0,0,1-.278-.785q0-.711.81-.71a1.023,1.023,0,0,1,.735.329,1.017,1.017,0,0,1,.329.734.872.872,0,0,1-.278.633.873.873,0,0,1-.633.28" transform="translate(-488.916 102.221)" fill="#fff"></path></g></g><g id="Groupe_1190" data-name="Groupe 1190" transform="translate(616.563 -129.511)"><path id="Tracé_2278" data-name="Tracé 2278" d="M491.167-107.085h-5.291l.318-1.97a4.868,4.868,0,0,0-2.748-5.256c-.638-.233-1.268-.479-1.9-.725-1.182-.462-2.3-.9-3.463-1.245-4-1.185-8.1-2.724-10.926-5.935a10.734,10.734,0,0,1-2.221-7.822c1.044-6.715,7.564-9.737,12.8-12.166.98-.455,1.926-.893,2.793-1.335,1.286-.659,2.028-1.365,2.209-2.1.205-.841-.231-2.031-1.3-3.539-.413-.581-.861-1.148-1.308-1.717-2.175-2.765-4.639-5.9-3.211-10.4a12.864,12.864,0,0,1,4.451-5.76c6.118-4.514,15.122-5.315,27.515-2.454,1.567.362,3.126.764,4.685,1.165.824.212,1.647.425,2.471.63a42.939,42.939,0,0,0,12.656,1.676,17.406,17.406,0,0,0,5.5-.965,17.2,17.2,0,0,0,2.921-1.693c.623-.418,1.248-.832,1.9-1.206l1.846-1.07c1.2-.7,2.4-1.394,3.605-2.075,5.3-2.984,13.405-6.745,22.638-4.991a22.168,22.168,0,0,1,5.366,1.7,14.558,14.558,0,0,1,4.841,3.592h0c3.924,4.543,4.548,9.917,1.668,14.375a14.32,14.32,0,0,1-9.842,6.324c-4.257.7-8.464.107-12.531-.474l-1.187-.168c-6.428-.9-12.9-1.381-15.217,3.327a24.746,24.746,0,0,0-1.068,2.647c-.785,2.175-1.6,4.425-3.824,6.285a14.663,14.663,0,0,1-9.158,3.075c-4.835.132-9.335-1.377-13.3-2.7l-.866-.29c-3.536-1.189-7.187-2.418-10.6-1.7a9.688,9.688,0,0,0-3.958,1.632,2.409,2.409,0,0,0-1.022,1.311c0,.046-.014.155.192.37a9.391,9.391,0,0,0,2.3,1.4c2.216,1.105,5.563,2.78,4.721,6.72-.895,4.184-5.385,4.736-8.068,5.066l-.435.054c-3.964.5-5.915,1.637-5.8,3.364.09,1.35,1.094,2.445,2.259,3.716,1.391,1.518,2.967,3.238,3.154,5.774.166,2.219-1.185,3.739-2.272,4.96l-.506.571Zm-1.545-3.4h.773a2.845,2.845,0,0,0,.948-1.907c-.1-1.36-1.107-2.459-2.272-3.731-1.392-1.52-2.972-3.243-3.143-5.782-.177-2.646,1.2-6,8.759-6.961l.448-.056c2.7-.333,4.8-.72,5.162-2.4.236-1.112-.309-1.668-2.917-2.972a11.45,11.45,0,0,1-3.245-2.1,3.816,3.816,0,0,1-1.117-2.985,5.434,5.434,0,0,1,2.352-3.741,13,13,0,0,1,5.32-2.253c4.317-.9,8.6.542,12.38,1.812l.854.287c3.7,1.233,7.873,2.625,12.149,2.525a11.548,11.548,0,0,0,7.064-2.289c1.523-1.269,2.118-2.919,2.805-4.828a27.861,27.861,0,0,1,1.218-3c3.6-7.305,13.071-5.983,18.736-5.188l1.194.168c3.811.543,7.75,1.1,11.495.486a10.818,10.818,0,0,0,7.547-4.818c2.906-4.495,0-8.708-1.386-10.311h0a11.183,11.183,0,0,0-3.729-2.743,18.7,18.7,0,0,0-4.541-1.433c-6.287-1.2-12.556.229-20.336,4.612-1.194.674-2.383,1.364-3.568,2.053l-1.856,1.077c-.582.336-1.143.712-1.707,1.087a19.817,19.817,0,0,1-3.519,2.012,20.308,20.308,0,0,1-6.6,1.212,46.062,46.062,0,0,1-13.667-1.771q-1.251-.313-2.5-.637c-1.53-.4-3.062-.79-4.6-1.145-11.376-2.627-19.464-2.011-24.737,1.876a9.547,9.547,0,0,0-3.23,4.054c-.842,2.658.457,4.5,2.644,7.278.482.611.963,1.224,1.408,1.851,1.688,2.381,2.287,4.444,1.829,6.312-.425,1.736-1.758,3.187-3.962,4.315-.9.462-1.888.92-2.911,1.392-4.74,2.2-10.112,4.687-10.875,9.606a7.5,7.5,0,0,0,1.414,5.057c2.367,2.692,6.062,3.952,9.342,4.923,1.3.385,2.539.869,3.733,1.338.606.236,1.211.474,1.826.7A8.14,8.14,0,0,1,489.622-110.481Z" transform="translate(-464.853 178.487)" fill="#fff"></path></g><g id="Groupe_1193" data-name="Groupe 1193" transform="translate(600.632 -68.934)"><g id="Groupe_1191" data-name="Groupe 1191"><path id="Tracé_2279" data-name="Tracé 2279" d="M523.259-66.4a1.477,1.477,0,0,0-1.477,1.477v2.805a1.443,1.443,0,0,0-.019.513,1.522,1.522,0,0,1,.019.177c0,3.352-12.052,8.027-31.677,8.027s-31.677-4.675-31.677-8.027a1.856,1.856,0,0,1,.022-.194,1.365,1.365,0,0,0-.022-.47V-131.94c0-3.352,12.05-8.029,31.677-8.029q1,0,1.98.019a5.33,5.33,0,0,0-1.506-.859c-1.831-.669-3.581-1.447-5.46-2l-.01,0c-15.428.657-29.636,4.364-29.636,10.875v70.134a1.18,1.18,0,0,0,.01.156c-.007.075-.01.148-.01.222,0,7.209,17.423,10.982,34.632,10.982s34.63-3.773,34.63-10.982c0-.075,0-.148-.008-.222a1.2,1.2,0,0,0,.008-.156v-3.116A1.477,1.477,0,0,0,523.259-66.4Z" transform="translate(-455.472 142.815)" fill="#fff"></path></g><g id="Groupe_1192" data-name="Groupe 1192" transform="translate(40.868 0.059)"><path id="Tracé_2280" data-name="Tracé 2280" d="M479.538-142.78a19.588,19.588,0,0,1,2.537,3.12c14.382,1.122,22.9,4.877,22.9,7.7v15.859a1.476,1.476,0,0,0,1.477,1.477,1.476,1.476,0,0,0,1.476-1.477v-15.859C507.933-138.3,494.478-141.98,479.538-142.78Z" transform="translate(-479.538 142.78)" fill="#fff"></path></g></g></g></svg> 