<svg id="Groupe_28" data-name="Groupe 28" xmlns="http://www.w3.org/2000/svg" width="78.57" height="65" viewBox="0 0 78.57 65">
  <path id="Tracé_4" data-name="Tracé 4" d="M382.518,124.207a4.391,4.391,0,0,1-1.063-.122c-.327-.082-.654-.15-.981-.2a33.919,33.919,0,0,0-3.68-.122q-1.8.043-3.679.041a1.309,1.309,0,0,1-1.186-.45,3.676,3.676,0,0,1-.449-1.186,32.185,32.185,0,0,1-.164-3.229V115.7q0-2.369-.082-4.824t-.081-4.905q0-11.446.531-22.729t.531-22.729q0-.9.981-.9a.61.61,0,0,1,.531.409,4.5,4.5,0,0,1,.327.9,4.22,4.22,0,0,1,.123,1.022v.776q0,1.637-.041,3.311t-.041,3.311q0,2.291-.164,4.538t-.327,4.538q-.41,6.95-.491,13.777t-.081,13.776q0,3.517.081,6.991t.082,6.99a5.423,5.423,0,0,0,.123,1.39.742.742,0,0,0,.49.531,2.069,2.069,0,0,0,.941.041,11.646,11.646,0,0,1,1.553-.082H377.9q1.184,0,2.453.082a9.047,9.047,0,0,1,2.248.409q.981.328.9.9Q383.335,124.206,382.518,124.207Z" transform="translate(-371.154 -59.616)" fill="#15171c"/>
  <path id="Tracé_5" data-name="Tracé 5" d="M401.812,130.39a6.5,6.5,0,0,1-3.352-.818,8.244,8.244,0,0,1-2.412-2.166,11.88,11.88,0,0,1-1.676-3.148,21.006,21.006,0,0,1-.981-3.76,27.592,27.592,0,0,1-.531-4.047q-.123-2.086-.2-4.048-.082-1.88-.081-3.6t-.082-3.025q-.082-3.107-.081-6.133V93.515a26.589,26.589,0,0,1,.327-3.843,17.367,17.367,0,0,1,1.144-4.17,9.658,9.658,0,0,1,2.289-3.352,5.152,5.152,0,0,1,3.68-1.39,5.4,5.4,0,0,1,3.066.9,8.338,8.338,0,0,1,2.29,2.289,10.207,10.207,0,0,1,1.389,3.026,11.735,11.735,0,0,1,.45,3.106A24.819,24.819,0,0,1,406.8,93.6c-.11.326-.535.6-1.277.818a11.166,11.166,0,0,1-2.509.409q-1.318.082-2.51.041t-1.605-.041h-4.28a.217.217,0,0,0-.246.245v7.2q0,2.617.081,5.355t.246,5.355q0,2.127.246,4.66.165,1.31.33,2.616a13.048,13.048,0,0,0,.576,2.535,10.741,10.741,0,0,0,2.14,4.047,4.975,4.975,0,0,0,3.95,1.595,3,3,0,0,0,1.769-.491,2.9,2.9,0,0,0,1.029-1.267,6.563,6.563,0,0,0,.452-1.8,17.4,17.4,0,0,0,.124-2.085v-.327a1.181,1.181,0,0,0,.164-.491.763.763,0,0,1,.988-.409c.383,0,.631.273.741.817q0,.492.041.941c.027.3.041.587.041.859a6.971,6.971,0,0,1-1.431,4.333A4.787,4.787,0,0,1,401.812,130.39Zm3.352-40.53a17.411,17.411,0,0,0-.531-2.676,10.179,10.179,0,0,0-.981-2.352,4.594,4.594,0,0,0-1.636-1.663,4.963,4.963,0,0,0-2.576-.609,2.957,2.957,0,0,0-2.207,1.056,9.121,9.121,0,0,0-1.636,2.514,14.324,14.324,0,0,0-.981,3.124,15.226,15.226,0,0,0-.326,2.879v.406a.892.892,0,0,0,.081.4c0,.054.081.082.245.082q1.228,0,2.494.04t2.576-.04q1.306,0,2.576-.081a16.658,16.658,0,0,0,2.412-.326c.217-.108.353-.379.409-.811a3.207,3.207,0,0,0,.041-.892A4.613,4.613,0,0,1,405.164,89.86Z" transform="translate(-376.958 -65.39)" fill="#15171c"/>
  <path id="Tracé_6" data-name="Tracé 6" d="M424.175,130.072a5.659,5.659,0,0,1-1.636-.245,3.189,3.189,0,0,1-1.471-.981,15.037,15.037,0,0,1-2.331-5.233,48.728,48.728,0,0,1-1.267-6.827q-.41-3.557-.532-6.99t-.122-5.887q0-1.8.122-4.5t.45-5.478a53.33,53.33,0,0,1,.9-5.355,18.519,18.519,0,0,1,1.39-4.21,5.754,5.754,0,0,1,2.29-2.289,5.957,5.957,0,0,1,3.025-.981,4.48,4.48,0,0,1,3.434,1.309,8.37,8.37,0,0,1,1.839,3.229,17.768,17.768,0,0,1,.777,4.048q.164,2.126.164,3.761,0,5.97.163,11.937t.164,11.937q0,1.8-.2,4.006a15.08,15.08,0,0,1-.981,4.17,8.477,8.477,0,0,1-2.248,3.271A5.688,5.688,0,0,1,424.175,130.072Zm5.232-31.695V92.153q0-1.146-.124-2.743a15.99,15.99,0,0,0-.535-3.073,6.607,6.607,0,0,0-1.319-2.538,2.982,2.982,0,0,0-2.389-1.066,3.587,3.587,0,0,0-2.266.737,6.405,6.405,0,0,0-1.607,1.884,11.522,11.522,0,0,0-1.2,3.808q-.451,2.582-.741,5.529t-.413,5.693q-.122,2.745-.122,4.382,0,2.131.164,5.366t.617,6.634a52.961,52.961,0,0,0,1.235,6.388,13.447,13.447,0,0,0,1.937,4.546,2.189,2.189,0,0,0,1.729.574,3.457,3.457,0,0,0,2.594-1.064,7.857,7.857,0,0,0,1.649-2.662,13.741,13.741,0,0,0,.824-3.358,28.177,28.177,0,0,0,.206-3.237q0-4.913-.123-9.787T429.407,98.378Z" transform="translate(-383.622 -65.482)" fill="#dc0a31"/>
  <path id="Tracé_7" data-name="Tracé 7" d="M445.207,85.308a18.032,18.032,0,0,1,2.715-3.271,5.534,5.534,0,0,1,3.948-1.39,5.206,5.206,0,0,1,3.538,1.145,7.1,7.1,0,0,1,1.975,2.861,13.337,13.337,0,0,1,.823,3.638q.165,1.922.164,3.393,0,7.849-.245,15.576t-.246,15.576a10.542,10.542,0,0,0,.654,3.924,1.721,1.721,0,0,0,.327.409c.164.164.3.3.409.409s.271.274.49.491a.9.9,0,0,1,.327.573.917.917,0,0,1-.286.736,1.031,1.031,0,0,1-.694.245,1.785,1.785,0,0,1-1.474-.737,7.155,7.155,0,0,1-.986-1.76,9.432,9.432,0,0,1-.576-2.089,11.806,11.806,0,0,1-.164-1.721q0-8.435.287-16.747t.289-16.75a16.439,16.439,0,0,0-.206-2.539,8.908,8.908,0,0,0-.7-2.374,4.832,4.832,0,0,0-1.358-1.761,3.364,3.364,0,0,0-2.179-.7,5.067,5.067,0,0,0-2.551.656,7.064,7.064,0,0,0-2.016,1.721,10.341,10.341,0,0,0-1.44,2.375,11.96,11.96,0,0,0-.823,2.621A17.354,17.354,0,0,0,445,92.358q-.041,1.639.041,3.521t.123,3.644q.04,1.761.041,2.908.081,6.634.082,13.228v13.226q0,1.148-1.021,1.147a.669.669,0,0,1-.707-.409,5.772,5.772,0,0,1-.235-.736v-1.145q0-3.269-.04-6.5t-.041-6.5q0-8.094.286-16.107t.122-16.189v-.572a.679.679,0,0,1,.7-.572c.259,0,.466.233.621.695a5,5,0,0,1,.233,1.594,3.051,3.051,0,0,1,.042.859C445.22,84.75,445.207,85.037,445.207,85.308Z" transform="translate(-390.839 -65.359)" fill="#dc0a31"/>
  <path id="Tracé_8" data-name="Tracé 8" d="M476.627,147.833a1.536,1.536,0,0,1-1.1-.777,2.381,2.381,0,0,1-.45-1.267q0-1.144,1.308-1.145a1.826,1.826,0,0,1,1.717,1.717,1.542,1.542,0,0,1-1.472,1.472Z" transform="translate(-399.53 -82.833)" fill="#15171c"/>
</svg>
